<!DOCTYPE html>
<html lang="en">

<head>
    <meta charset="UTF-8">
    <meta name="viewport" content="width=device-width, initial-scale=1.0">
    <meta http-equiv="X-UA-Compatible" content="ie=edge">
    <title>Document</title>
</head>

<body>
    <script>
        var error=new Date('2016-01-01 00:00:00')  
        console.log(error ) //[date] Invalid Date[date] Invalid Date
        var success=new Date('2016-01-01 00:00:00'.replace(/-/g,'/'))
        console.log(success)
    </script>
</body>

</html>
Input File     : 'abc.mp3'
Channels       : 2
Sample Rate    : 44100
Precision      : 16-bit
Duration       : 00:00:07.05 = 311037 samples = 528.974 CDDA sectors
File Size      : 282k
Bit Rate       : 320k
Sample Encoding: MPEG audio (layer I, II or III)


Output File    : '' (null)
Channels       : 2
Sample Rate    : 44100
Precision      : 16-bit
Duration       : 00:00:07.05 = 311037 samples = 528.974 CDDA sectors

D:\sox\sox-14-4-2\sox.exe INFO sox: effects chain: input        44100Hz  2 channels
D:\sox\sox-14-4-2\sox.exe INFO sox: effects chain: output       44100Hz  2 channels


Input File     : 'abc(1).mp3'
Channels       : 2
Sample Rate    : 44100
Precision      : 16-bit
Duration       : 00:00:07.05 = 311037 samples = 528.974 CDDA sectors
File Size      : 282k
Bit Rate       : 320k
Sample Encoding: MPEG audio (layer I, II or III)


Output File    : '' (null)
Channels       : 2
Sample Rate    : 44100
Precision      : 16-bit
Duration       : 00:00:07.05 = 311037 samples = 528.974 CDDA sectors

D:\sox\sox-14-4-2\sox.exe INFO sox: effects chain: input        44100Hz  2 channels
D:\sox\sox-14-4-2\sox.exe INFO sox: effects chain: output       44100Hz  2 channels